# xmcd
#
# Track frame offsets:
#	150
#	15405
#	38946
#	55904
#	70935
#	85934
#	104675
#	117961
#	132343
#	149327
#	173939
#	189091
#	205474
#	223130
#	241369
#	256319
#	271289
#	289972
#	306377
#	318621
#
# Disc length: 4461 seconds
#
# Revision: 1
# Processed by: cddbd v1.5.2PL0 Copyright (c) Steve Scherf et al.
# Submitted via: audiograbber 1.83.01
#
DISCID=3a116b14
DTITLE=Hollies - Romany [2007 Expanded]
DYEAR=1972
DGENRE=Pop
TTITLE0=Won't You Feel Good That Morning
TTITLE1=Touch
TTITLE2=Words Don't Come Easy
TTITLE3=Magic Woman Touch
TTITLE4=Lizzy and the Rainman
TTITLE5=Down River
TTITLE6=Slow Down
TTITLE7=Delaware Taggett and the Outlaw Boys
TTITLE8=Jesus Was a Crossmaker
TTITLE9=Romany
TTITLE10=Blue in the Morning
TTITLE11=Courage of Your Convictions
TTITLE12=The Baby [Single A-Side]
TTITLE13=Magic Woman Touch [Acoustic Version]
TTITLE14=Indian Girl [Single B-Side]
TTITLE15=If It Wasn't for the Reason That I Love You
TTITLE16=Papa Rain
TTITLE17=Witchy Woman
TTITLE18=Oh Granny [Terry Sylvester Version - Single B-Side]
TTITLE19=I Had a Dream [US Single A-Side]
EXTD=
EXTT0=
EXTT1=
EXTT2=
EXTT3=
EXTT4=
EXTT5=
EXTT6=
EXTT7=
EXTT8=
EXTT9=
EXTT10=
EXTT11=
EXTT12=
EXTT13=
EXTT14=
EXTT15=
EXTT16=
EXTT17=
EXTT18=
EXTT19=
PLAYORDER=
